HIERARCHY
ROOT Hips
{
 OFFSET 0.000000 0.000000 0.000000
 CHANNELS 6 Xposition Yposition Zposition Yrotation Xrotation Zrotation
 JOINT Chest
 {
  OFFSET 0.000000 9.585900 0.002600
  CHANNELS 3 Yrotation Xrotation Zrotation
  JOINT Chest2
  {
   OFFSET 0.000000 9.601200 -0.005300
   CHANNELS 3 Yrotation Xrotation Zrotation
   JOINT Chest3
   {
    OFFSET 0.000000 9.561800 0.000000
    CHANNELS 3 Yrotation Xrotation Zrotation
    JOINT Chest4
    {
     OFFSET 0.000000 9.552100 0.000000
     CHANNELS 3 Yrotation Xrotation Zrotation
     JOINT Neck
     {
      OFFSET 0.000000 14.453000 0.000000
      CHANNELS 3 Yrotation Xrotation Zrotation
      JOINT Head
      {
       OFFSET 0.000000 8.936500 -0.011300
       CHANNELS 3 Yrotation Xrotation Zrotation
       End Site
       {
        OFFSET 0.000000 17.073600 -0.006000
       }
      }
     }
     JOINT RightCollar
     {
      OFFSET -2.921100 9.558500 0.000000
      CHANNELS 3 Yrotation Xrotation Zrotation
      JOINT RightShoulder
      {
       OFFSET -13.519700 0.000000 0.000000
       CHANNELS 3 Yrotation Xrotation Zrotation
       JOINT RightElbow
       {
        OFFSET 0.000000 -29.696600 0.000000
        CHANNELS 3 Yrotation Xrotation Zrotation
        JOINT RightWrist
        {
         OFFSET 0.000000 -24.004700 0.000000
         CHANNELS 3 Yrotation Xrotation Zrotation
         End Site
         {
          OFFSET 0.000000 -17.728500 0.000000
         }
        }
       }
      }
     }
     JOINT LeftCollar
     {
      OFFSET 2.921100 9.558500 0.000000
      CHANNELS 3 Yrotation Xrotation Zrotation
      JOINT LeftShoulder
      {
       OFFSET 13.519700 0.000000 0.000000
       CHANNELS 3 Yrotation Xrotation Zrotation
       JOINT LeftElbow
       {
        OFFSET 0.000000 -29.696600 0.000000
        CHANNELS 3 Yrotation Xrotation Zrotation
        JOINT LeftWrist
        {
         OFFSET 0.000000 -24.004700 0.000000
         CHANNELS 3 Yrotation Xrotation Zrotation
         End Site
         {
          OFFSET 0.000000 -17.728500 0.000000
         }
        }
       }
      }
     }
    }
   }
  }
 }
 JOINT RightHip
 {
  OFFSET -7.771700 -0.012900 -0.001300
  CHANNELS 3 Yrotation Xrotation Zrotation
  JOINT RightKnee
  {
   OFFSET 0.000000 -40.869800 0.001200
   CHANNELS 3 Yrotation Xrotation Zrotation
   JOINT RightAnkle
   {
    OFFSET 0.000000 -39.717900 0.002100
    CHANNELS 3 Yrotation Xrotation Zrotation
    JOINT RightToe
    {
     OFFSET 0.000000 -4.965400 11.033500
     CHANNELS 3 Yrotation Xrotation Zrotation
     End Site
     {
      OFFSET 0.000000 -1.423100 5.872300
     }
    }
   }
  }
 }
 JOINT LeftHip
 {
  OFFSET 7.771700 -0.012900 -0.001300
  CHANNELS 3 Yrotation Xrotation Zrotation
  JOINT LeftKnee
  {
   OFFSET 0.000000 -40.869800 0.001200
   CHANNELS 3 Yrotation Xrotation Zrotation
   JOINT LeftAnkle
   {
    OFFSET 0.000000 -39.717900 0.002100
    CHANNELS 3 Yrotation Xrotation Zrotation
    JOINT LeftToe
    {
     OFFSET 0.000000 -4.965400 11.033500
     CHANNELS 3 Yrotation Xrotation Zrotation
     End Site
     {
      OFFSET 0.000000 -1.423100 5.872300
     }
    }
   }
  }
 }
}
MOTION
Frames: 8
Frame Time: 0.008333
-18.497527 62.060104 12.182826 174.493635 -49.169840 -0.901240 3.911192 26.938219 1.471292 0.581801 4.614924 0.207459 0.934487 7.340416 0.391670 3.044335 21.886618 1.544707 0.947818 13.565320 5.533429 -0.363682 -10.470441 10.118741 5.107024 3.675616 2.588170 -9.346685 -2.340165 -12.521586 -117.126145 -61.287538 156.550124 10.026203 10.682392 -12.256296 -8.999312 0.212907 1.968606 -0.884518 -0.760194 13.154929 174.112212 -67.586522 166.265119 4.649372 4.391986 5.524683 1.802088 -18.015492 -4.696728 -1.836627 60.639577 -5.048036 2.367078 -5.403586 10.635733 0.232426 -0.379256 0.128205 -2.772691 -14.929095 4.631073 25.155903 77.326388 25.413314 1.085855 -11.884375 -3.246166 0.193773 0.540138 0.092218
-18.499930 62.060872 12.183309 174.489864 -49.170003 -0.897879 3.913903 26.949202 1.484961 0.580938 4.623269 0.216814 0.932029 7.331138 0.377307 3.045837 21.896911 1.556582 0.979563 13.541298 5.549925 -0.385726 -10.497830 10.089680 5.165351 3.654935 2.642352 -9.369328 -2.362496 -12.566731 -117.100981 -61.280886 156.526853 10.051642 10.706730 -12.277119 -9.016739 0.192452 1.957310 -0.895118 -0.768362 13.149028 174.115343 -67.595405 166.240865 4.657808 4.410754 5.473296 1.809826 -18.013449 -4.695596 -1.846363 60.639962 -5.058181 2.370893 -5.419924 10.631382 0.230210 -0.374342 0.133575 -2.766987 -14.929559 4.631588 25.136055 77.328546 25.393883 1.078030 -11.885980 -3.241061 0.199731 0.540863 0.091754
-18.502693 62.061601 12.183790 174.483721 -49.169939 -0.892021 3.915687 26.959712 1.494905 0.581597 4.631731 0.223445 0.931479 7.323547 0.368339 3.042549 21.893520 1.553007 1.002324 13.536977 5.561049 -0.333849 -10.581138 10.063281 5.208068 3.649960 2.689231 -9.368393 -2.382103 -12.589750 -117.098764 -61.283142 156.512541 10.051494 10.713020 -12.256661 -9.028250 0.178503 1.956607 -0.935472 -0.772986 13.141414 174.042234 -67.616466 166.266706 4.645426 4.435241 5.467457 1.815744 -18.011763 -4.692748 -1.842862 60.639858 -5.062194 2.366686 -5.434630 10.628502 0.225833 -0.377810 0.134737 -2.759402 -14.929443 4.629799 25.125196 77.328506 25.381914 1.078731 -11.889170 -3.234988 0.198517 0.543838 0.089957
-18.505313 62.062565 12.184062 174.479581 -49.172065 -0.890019 3.914954 26.969603 1.504569 0.582547 4.639823 0.229861 0.933457 7.347200 0.386712 3.036460 21.885098 1.543595 1.015340 13.510718 5.550706 -0.347751 -10.596843 10.049405 5.225732 3.623147 2.691058 -9.330177 -2.397654 -12.582522 -117.141553 -61.317442 156.502165 9.997449 10.667834 -12.197519 -9.042912 0.130087 1.936957 -0.974805 -0.770098 13.134805 174.046697 -67.640948 166.279092 4.675025 4.461446 5.396727 1.822961 -18.008206 -4.688425 -1.847882 60.641142 -5.069765 2.363299 -5.447068 10.622728 0.228110 -0.383808 0.137858 -2.753348 -14.926590 4.629070 25.126472 77.326678 25.381947 1.087348 -11.892996 -3.233732 0.186056 0.547672 0.091068
-18.506810 62.063233 12.184634 174.460639 -49.172837 -0.885185 3.930033 26.973805 1.522326 0.582928 4.642644 0.231917 0.933936 7.353537 0.394726 3.039014 21.897521 1.555645 1.030403 13.487337 5.537885 -0.326052 -10.637493 10.025440 5.223555 3.600173 2.670835 -9.317777 -2.402718 -12.580955 -117.057807 -61.264599 156.480848 10.023811 10.694044 -12.222310 -9.055973 0.079165 1.913764 -0.998326 -0.760122 13.126001 174.038057 -67.663581 166.287420 4.723215 4.494699 5.323455 1.842823 -18.002869 -4.671528 -1.861273 60.634633 -5.084289 2.353322 -5.463414 10.609192 0.233567 -0.380017 0.150415 -2.739820 -14.925190 4.638070 25.118681 77.326427 25.374072 1.095647 -11.893025 -3.230204 0.196476 0.547276 0.089097
-18.509912 62.064030 12.184797 174.458170 -49.175492 -0.884195 3.932218 26.977543 1.526568 0.582956 4.643501 0.232593 0.934915 7.360109 0.410313 3.041471 21.907643 1.569150 1.029021 13.470093 5.514659 -0.230712 -10.679796 9.972838 5.253605 3.579742 2.679112 -9.310832 -2.416514 -12.592763 -117.014607 -61.247002 156.451844 10.035378 10.709941 -12.226395 -9.068041 0.044930 1.887578 -1.058963 -0.771861 13.102895 174.017274 -67.709498 166.307970 4.766811 4.538271 5.273208 1.848682 -17.999025 -4.666588 -1.867792 60.634842 -5.094945 2.345441 -5.469750 10.611501 0.229713 -0.399914 0.136908 -2.736545 -14.922845 4.639052 25.106641 77.326703 25.360305 1.093988 -11.892938 -3.224629 0.192195 0.546830 0.087580
-18.511956 62.064757 12.184952 174.448528 -49.178912 -0.884763 3.936822 26.983195 1.542508 0.583735 4.646127 0.235825 0.941153 7.359918 0.415809 3.042777 21.914834 1.585958 1.056969 13.459612 5.492807 -0.185591 -10.699048 9.918809 5.298420 3.562757 2.681816 -9.319082 -2.425700 -12.594433 -116.985817 -61.243255 156.428424 10.039815 10.719669 -12.228707 -9.081065 0.017250 1.859482 -1.076902 -0.773470 13.088007 173.751306 -67.754590 166.490492 4.701212 4.556740 5.300291 1.858639 -17.995190 -4.652703 -1.868534 60.635210 -5.101882 2.334734 -5.473544 10.618856 0.233031 -0.404638 0.132383 -2.730237 -14.919445 4.647271 25.097817 77.327676 25.350209 1.097443 -11.892726 -3.220875 0.211591 0.545819 0.085963
-18.514882 62.065062 12.185097 174.446596 -49.180582 -0.886141 3.938780 26.984190 1.559906 0.588322 4.647088 0.249644 0.940047 7.361890 0.404545 3.046741 21.919430 1.602506 1.085923 13.454721 5.467115 -0.156396 -10.707486 9.871155 5.365815 3.532115 2.731228 -9.352936 -2.423390 -12.638770 -116.954555 -61.235440 156.404658 10.044950 10.731109 -12.238708 -9.097222 -0.021255 1.836239 -1.084275 -0.752595 13.077958 173.502110 -67.788591 166.672122 4.754642 4.617991 5.231682 1.871225 -17.994139 -4.646187 -1.907009 60.639249 -5.140398 2.347451 -5.481706 10.629263 0.227151 -0.404396 0.131175 -2.722255 -14.922550 4.646452 25.102227 77.331154 25.358815 1.109832 -11.884102 -3.222032 0.218184 0.537681 0.088196
